<svg id="Mexico" xmlns="http://www.w3.org/2000/svg" viewBox="0 0 714.44 466.22"><path d="M526.08,248c.12,10.3-8.17,18.84-9.72,28.92-3.59,6.32-2.22,27.2-5.59,27.31,1.67-.23.44,2.92,1,3.34.45-.41,0-1.92.27-2.38.71,1.83-1.34,14.69,0,19.68-.68.18,0,5.79-.25,1.65-.16-1.39-.87,2.35-1,2.5-.15.58-1.21,1.07-1,1.74-1.33.34-.43-.2-.39,1-.39.48-1.48,2.85-.35,2.81.18-.12.6-.33.49-.65.24-3.56.68.9,0,2,.29,1.38.89,3.78,1,5.2.89,5.09,2.94,11.49,7,15.28,1.43,1.57,4.8,2.64,4.41,5.1a22.28,22.28,0,0,1-2,5.05c-.13,2.94-1-1.8-1.4-2.64-.47-1.61,2.7-.82,2.19-2.85-2.32-2.56-6-5-6.48-8.72-.7-1-2.79-3.93-3.12-5.33a31.06,31.06,0,0,0,1.43,3.63c.74,3.22.87,12.31,5.12,11.53.35,1.81.35,3.86,1.67,5.56,1.88,4.9,5.13,10.83,6.51,15.63,3,3.9,7.16,7.36,10,11.33,2.81,3.17,6,7.06,7.39,11.21.1,3.62,2.27,6.75,2.68,10.15a9.35,9.35,0,0,0,3.93,2.73c.4,1.32.6,3.12,1.89,3.87,1.31-.32,2.08,1,2,2.22a6.42,6.42,0,0,0,2.62,3.52c.9.36,2.52.27,2.14,1.67-1.45-.54-3.41-2.82-4.82-2.24a16.93,16.93,0,0,1,3.54,2.76c-1.82-.86-2.15.4-.67.67,1.08-.87,2.63-.42,3.9.08a2.22,2.22,0,0,1,1.46.82c.83.44,1-.27,0-.66-1.22-.56-3.08-.65-2.91-2.28,2.13,2.12,5.76,2.43,8.6,2.39a7.17,7.17,0,0,1,8,3.43c1.45.74,5.2.22,6,2,.22,1.82,2.14,3.6,3.29,4.88,1.27,5.48,7.7,2.58,11.53,1.9,2.08-.75,4.25-1.8,6.39-2.42-2,1.68,1.45,1.23,2.2.62a.58.58,0,0,0,0-.83c0-.37.51-.4.66-.63a1.33,1.33,0,0,0,1.28-.35.53.53,0,0,0,.62.53c.22-.16,1.73-.1,1.78-.57.33-.53.46-1.81-.5-1.35a42,42,0,0,1-5.47,2.51c-.58.08,4.44-2.67,5.61-2.72a24.34,24.34,0,0,1,6.8-.45c.05.22,4.65-.75,3.27.4-.15.19-.53.29-.3.53-.09,2.08,2-1,1,1.47.67-.63,1.85-1.83-.1-2,1.67-1.44,6,.15,7.77-1.82.24-.47,1.48-1.17,1.6-1.73,1-2.33,1.39,2,1.32,2.67.32,1.27.51-.26.29-1,.6-1.13-1-2.52-.27-3.17,5.36-.39,10.92-2.18,16.4-1.86.26-.14,1.29.59,1.37.9.44.29,2.21,1.14,1,1.77-.44.08-.14,0-.1-.27-.24.22-.9.15-1.2.18-.64-.16.17-.56-.25-.86-.61.08-.84.51-1.52.39-.35.34.6.16.4.47-.42.38-1.22-.39-1.07.07.4.29-.74,1-.26,1,.2-.52.79.13,1,.22s1-.31,1.28,0c.13.54.92.84,1.42.92-.75-.65-1.95-1-1.92-2.17.39.2,1.1.79,1.6.32-.88.48.41.68.55,1.06s0,.33-.23.13c-.39.39.85.59,1.19.72.82.62-1,1.38-.35,2.05.28.27,1.19,1.37,1.4.46,0-.34-.46-.85-.47-1.21a.9.9,0,0,0,1,.34c-2.1-2.05.46-.78,1.4-.64a6.68,6.68,0,0,0,4.86,0c-.21.52.72,1,.67.23-.26-2.1-.24-.42-1.37-.28-.22-1.43,2.43-1.57,3.25-2.33.93.45,1.86-.69,2.17-1.51,1.06.27,1.9-.43,2.8-.86-.68-.29-2,.39-2.72.69.39-1.3,1.57-3.87-.8-3.8-.74,1.16-1.09-.67-1.92-.76.74-1.87,3.25-1.78,4.15-3.56-1,.34-2.54,1.76-3.6,2.13-1.23,2.46-4.24,1.78-.93-.21,5.85-3.43,12.63-6.69,16.38-12.27.16-15.43,3.29-7.2,6.25-15.38-2-4.12.35-9-.64-13.41.36-1.47.66-3.75,1-5.19a8.06,8.06,0,0,0,2.39-5.76c-.06,1.34-1.13,4.58-2.23,4.45,1.18-.47,1.28-4.92,2.16-5.56,1.2-1.57,4.47-2.38,5.85-3.69,5.94-3,12.68-4,19.4-4.49,4.37-.89,8.86-1.59,13.24-2.9a10.85,10.85,0,0,1,7.79-2.93c2.12,1.2,4.45-.6,6.64-.35a2.11,2.11,0,0,0-2.38.15c-.25-.05-1.35.53-1,0,2.41-1.18,5.3-.78,7.73.18,1.27.42,3.18.49,4.44,1,.35.25-.56.35-.65.36a21.75,21.75,0,0,0-3-.81c1.09,1.14,2.92,1.29,4.41,1.2.35.08,1.19.35,1.52,0l-1-.05c-2.23-.84,1.55-.27,2.14.19.25.11,1.32-.13,1.51.15-.06.4,1,.33.25.54-1,0,1.37.16,1.85.09,2.29.92,7.06,1.1,6.31-2.33-1.42-.75-2,1-3.32.88-.66-.31-1.29,0-1.33-.67a4.77,4.77,0,0,0-1.52,1.13c-.63-.48.73-1.93,1.6-1.63,1.65.82,3.25-.51,4.67-1.13,2.42-.42,4.31,2.58,5,4.52.2.17.58.28.55-.11a6.61,6.61,0,0,1,1.56.27c.22.83.62,2,.11,2.88.21,1.37-.31,4.64,1.91,3.87-.15.88-1.36,2-1,2.88.21.45-.53.41-.79.61A1.33,1.33,0,0,0,767,375c-.47,3.43-3.4,6.12-5.27,8.81-5,3.67-12,11.67-8.8,18.19.11,1.11-1,1.77-1.09,2.87a1.16,1.16,0,0,1,.64-1.68c.46-1-.13-1.8-.43-2.73-.67-.14,0,1,0,1.57,0,.13-.16.77,0,.46,1.23-.8-1,1.44-.84,1.47-.16.15-.39.53-.64.43-.26-.41-.62-.37-.74.08-1.43.54-1.5,3-2.4,4.14-.49.05.32-.51.31-.92s-1.39-.18-1.64-.28c-.46-.06-.6,1.18-.42,1.67,0,.38,1.07.63,1,1a1.47,1.47,0,0,0,1,.15c-.23.41-.16,1.11-.32,1.54,1.42-.4,2.13-2.39,3.84-1,.37,0,.08-.65.53-.52.13.16.35.23.44,0,.22.13.37.25,0,.34,0,.63,1.82-.95.64-1,.11.17.27.53-.08.53a4.11,4.11,0,0,1-2-.34,11.91,11.91,0,0,1,1.91.16c0-.36.11-1,.16-1.36,1.14,1.41.35,3.72-.8,4.8-.58,0-.95.78-1.4,1-1.3-.16-.56.51-.25-.24,1-1.4-2.38.33-2.58.95.06.05-.51,1.18-.1,1,.06-.07.1-.66.32-.51.08.47-1.26,1.08-.32,1.19-.28.42-.91,1.53-.39,1.86,1.51,1,2-2,3.13-2.28l1.1-.09c0,.14-.83,1.51-.2.77.25-.27.84-1,1-.43-.38.26-1.29.95-1.45,1.52-1.66,4.45-1.88,10-4.68,14.11-.76,2.8-.19,6.08-2.24,8.45,0,.62-.55,1.27-.59,1.88-.09.39,0,2.64-.22.95-.11-.64-.17-.46-.49-.05a.34.34,0,0,1-.18-.63,3.37,3.37,0,0,0,.4-1.88c-.13.48-.68,1.22-.53.34.62-.57-.43-1.2-.27-1.86-1.07-.06-.69-.41-.72-1.07-1.07-1-5.27-1.23-2.65-3.47-.32-.88.62-1.74.92-2.57.21-.39-.6-.75-.1-1.15a3.45,3.45,0,0,0-.5-2.73c.12-2.25-2.24,1.14-2.09,2.23-.55.94-.58,0-.35-.61-.33.88-2.08.59-2.5,1.62-.93,1.44,1.14-.16,1.27-.86.26.47-.17,1-.17,1.53-.09-.79,1.71-.73.62-.21-1.26,1.33-1.76,4.25-3.31,5-3,.25-5.3-1.16-5.65,2.92-.46,1.07-1.57,1.86-1.53,3.16,0,.79-1.85.86-1.78,1.48-.24,1.25-.69,3-2,3.72-.35,1.39-1.77,2-2.21,3.26-2.17-.54-3.36-3.78-6.1-1.94a6.15,6.15,0,0,0-.65,3.83c-2.71-.08-7.61,0-10.28,0-10.37,0-21.45,0-31.82,0-1.75,2.41-.17,10.54-.7,13.83-.13.31-12.57-.92-10,.59.44,0,1.35.32,1.27.93.57.19,1.17-.11,1.74,0s.58,1.13.73,1.59c1.3.27,1,1.7,2,2.35.48.16,1.34-.17,1.29.7,0,.42,1.38,1.39,1.15,2,.32.41,1,.39,1.31.69.09.27.76.59.62.06-.39-.52.48-.29.68-.27.23.53-.77.54.17.83.8.9,2.17,1.67,3.21,1.27.6.17,0,.69.58.92,1.54.48,1.87,2,2.76,3,.48.34-.26,2,.41,1.44.73-.32.1,1.12,0,1.56.33.19.89,0,.84.53-1.09.66.13.45.64.67.6-.43,1.1-.19,1.21.49.49-.59,1.46,0,1.33.72a2.52,2.52,0,0,1,1.29.38c.49-.27.77,0,.66.57a2.06,2.06,0,0,0,.3.59c-.42-.2-1-.19-1,.35.79-.63.39,1.17-.56,1.09.16.3.85.13.72.5-.34.07-.43-.1-.64.06.91.89-1.12.07-.16,1.06.75.18-.44.33-.41.82-.27.48.87.74.92,1.09-.51,0-.63.44-.21.65-.24.17-.78.55-.47.89.51-.34.53.08.17.5-8.31.59-17.15.05-25.52.25-2.82-.4-4.8-.33-5.91,2.22-3,5.78-7.31,11.64-9.76,17.57-.13,1,4.83,4.59,2.5,5.7-1.83-.13-1.07,1.83-1.19,2.84-.26.62-.94,1.38-.84,2.09.3,1.49,1.16,3.11.11,4.46-.85,5.21-5.51-3.27-7.52-4.29-1.94-1.38-12-13.31-5.36-6.9-.49-.87-.3-2.1-1.54-2.32-.57.07-1.81-1-1,0-8.53-5.74-15.84-15.22-25.63-19.94.63-.52,1.31.38,1.83,0s-.67-1.36-.77-1.86c-1.8-.88-5.16-.56-5.36-3.21-4.41,1.73-5.26-3.21-6.81-1.39.1.26.2.85-.1.82-.33-.31-.38.17-.08.18-.57.07,2,2.17,3.13,2.32,1.71-.4-1.2-.39-1.13-1,.8-.08,1.77.68,2.6.46.51.14,1.88.76,1.08.87.18.3,2.62.6,3,1.26.2.92,1.74,1.23,2.17,1.9-5.89-2.85-11.88-5.17-17.73-4.92-.7-.87,1.89-1.13,2.27-1.38,1.84-1.46.9-2.16-1-2.62a5.23,5.23,0,0,1-1.85,1.59c-.76.11-.91,1.81-1.39.3-.15-.59.7-.55.84-1-.29-.51-.7-.72-.71-1.3-1.11-2.69-3-.15-3.79,1.15,0,.41-1.45,0-1.59.16.65.8-1.75,1.07-.25,1.6,1.56.37,3.73.66,4.9-.6.59,1-1.79.78-2.25,1,.84.65,2.1,0,2.92.17a1.35,1.35,0,0,1,1,.81c.05.42-1.29-.34-1.35-.24-2.61,0-5.36.75-7.86.78.49.82-1.08.23-1.41.57a.57.57,0,0,0-.76.58.89.89,0,0,0-.84.73,2.7,2.7,0,0,0-2.34,2,2,2,0,0,0-1.17,1.12c-.14.1-1.57-.24-1.46.24-4.05.88-7.76,2.55-11.83,3.81-2.33.91-4,3-6.63,3-1.17-.15-2.29.15-3.37-.25a3.78,3.78,0,0,1-2.92.9c-5.09-1.89-10.14-2.67-14.12-5.94-3.4-1.32-7.19-.75-10.65-1.75a6.94,6.94,0,0,1-5.13-.85c-2.22-2.05-5.44-3.25-7.86-4.83.35-.31,2.18,1.17,2.42.17-.71-.21-1.08-.22-1.76-.37-.44,0-.67-.65-.91-.3-2.31-.23-8.57-1.18-9.34-3.19-5-3.69-2.26-5.38-7.58-4.24-5-1.73-10.94-4-16.32-3.61-2.17-.2-4-2.17-5.67-2.66-.65-.45.37.15.29-.25s-.75.05-1-.32c.31,0,.17-.6.59-.52,0-.45-.39-.44-.7-.54-1.45.36.51.6-.75.77-.48-1.44-2.09-2.26-3.55-2.63-7.22-2.47-14.79-5.41-22-7.78-.37-.6-1.83-.1-1.06-.73,0-1.57-2.57-1.88-3-3.17-1.74-1.4-4.92-1.79-6.41-3.06,1.09-.31-.49-1.53-.93-1.89-1,0-2.06-.08-2.4-1-.78-.44-1.22-.24-1.13-1.27-.45-1.2-2.19-1.53-2.54-2.74-1.38-2.25-5.18-4.56-8-4.06-.64.95-1.85,2.18-3,1.21a43.87,43.87,0,0,0-12-3.29,71.46,71.46,0,0,0-14.47-4.92c-4.57-1.2-4-6.44-8.07-8,.06-4.42-8.44-8-12.49-9.88-4.53-1.1.31-1.68-2.31-2.71-.27.35-.45.15-.33-.26-1.06-.76-.64,1.11-1.44.15-.57,1.05-.79-.17-1.65-.32-.75-.59-2.62-.69-3.49-1s-1.13-1.26-2-1.29c-.34-1.09-1.31.05-2-.43.77-3.28-1.6-.27-3.52-2.2-1.55-.7-1.45-2.68-2.63-3.43.25-.58,0-.82-.37-1.22a1.82,1.82,0,0,0-.72-2c-3.08-.45-4.81-4.66-6.6-6.94a11.62,11.62,0,0,1-3.59-8.37c-6.12-6.64-2.32-6.74,4.52-7.75a3.25,3.25,0,0,0,2.93-3.09c-1.15-.69-1.54-2.08-2.51-3-.62-.51-.94.56-1.62.52-.82-.61-4.4-.62-2.42-1.35,1,.19,1-1.57,1.53-2.13a37.4,37.4,0,0,0,2.89-3.25c.26-1.16,2.27-.09,2.22-2.19-.09-.9-.3-2.11.33-2.85.07-1.5-.94-3.23-.33-4.62.89-1.1,1.52-2.89-.31-3.48-4.86,0-7-7.92-9.47-11.7.13-6.14-.91-12.2-3.54-16.33-.93-1-2.51-2.58-3.32-3.62-.65-.55-2.05-1-1-1.91a1.65,1.65,0,0,0-1.12.68c-2.21-2.87-6.41-8.56-9.34-9.22.36-1.18-.76-2.27-1.35-3.09.76-1.51-2-3-3-4.05-1.07-1.44-2.24-3.5-4.13-4-.43-.81-.35-2.06-1.2-2.63-2.3-6.25-9.64-9.48-14-13.63-1.64-2.15-7.47-4.11-8.26-6.53.45,0,.63.45.59.81,1.46.5,8.12,5.46,5.18,2.65.36,0,1.21,1.1,1.33.54-.68-.25.88-.84.26-1.69-.25-1-1.22-3.39-2.59-2.24-.71.92,1.29-.37.82.53-1.6,2.3-2-.48-3.6.26-.93-.29-.64-1.52-1.58-1.72-1-1.08-5.59-3.57-2.32-.61,4.13,3-4-1.15-3.28-3.88,0-.63-.9-.88-1-1.43.73-.33,2.43,2,2-.27a3.62,3.62,0,0,1-.2-4c-.35-.33-1.59-2-1.5-.75a7.65,7.65,0,0,1,.19,3.71c-2.17,1.82-3.68-4-5.06-5.62-.79-.58-2.65-2.14-.2-1,.51.68,1.66,2.72,2.22,2.93.63-.11,1.14.66,1-.57.15-.7-.9,0-.79-.6.31-.35.47-1.2.87-.46.54.93,1.81.65,2.62,1.15,1-.76-2.06-2.72-2.48-3.14-.42.92-1.73.26-2.17-1.12-1-.34-3.53,1.27-3.34-1,1.47,1.32,1.13-1.14.06-1.42-.88-.64-.91,5.57-1,1.64-.4-2.38-4.21-2.91-6-4-3.64-.31.05-.76,1.41.07a3.6,3.6,0,0,0-4-.77c-.73-.91.46-.13.84-.65-.37-.36-.33-1.55-1-.78-.6,0,.74-2.32-.08-2.72-.5.52-1.31-.54-1.62-.55-2.61-.09.26,1.45-1.67,2.46-.28.16-.76-.23-.84-.53.31.12.4-.23.18-.37-.42-.06-2.51,0-1.45.9-1,.37-3.08-1.75-2.06-2,.65-1,.6-1.11,1.82-.74.64-.39.29.8.84.75,0-1.24,1.54-1.86,2-3a.32.32,0,0,1,.28-.51c.14-.4-.1-1.14.24-1.51.9-.1,1.42-2.25.54-1.46-.65,1.53-1.4,3.17-3.26,3.37-1,1.38-3.5,3.4-4.09.62-.5-.61-1.44-.61-2-1.22-.44,1.28,2.73,2,2.19,3.35-.85-.66-1.31-2-2.49-2.14-.72.33-6-.31-1.55-.75,1.23.66.25-.61,1-1.1a2.34,2.34,0,0,0-1.7-1.35c-1.21-.21-.68,1.54-.93,2.18-.43-.37,0-1-.1-1.5-1.79-2.7.46-2.57-.8-5.35-.28-3.52,3.49-6,4.11-9.41.76.38-.41,1.18-.51,1.67-.85,4.78,1.69-.79,1.37-2.46,1.37-.94,2.07,1,1.13,1.87.6,0,1.32,1.28,1.91,1.25.1-.66-.83-1.32.28-1.62a4.06,4.06,0,0,1-1.72-2.28c-.24-.14-.95-.68-.31.15a1.18,1.18,0,0,0-1.64.6c-.75-.64.49-3.1-.36-4.24-1.54-1.57-2.79-4.34-5.13-4.62-.55-.56.9,0,1.09.08-.28-.47,0-1.23-.72-1.16-.53.21-.41-1-.83-.55-.08.49-.48-.06-.4-.26-.46-.29-.88.36-1,.79.17.19.49.16.72.23.09.37-.12.62.42.78.75.39-1.83-.49-2.36-.48-5,2.21-5.95-4.63-8-7.87-.11-.79,1.1,1.53,1.45,1.48-.73-1.38-.44-3.49-1.93-4.41-.63-.36-1.74-.41-2,.49-1.11-.1-3.42-1.3-5-1.4-2.49-.72-3.58-3.84-6.06-4.11,1.82.1,3,.51,1.25-1.21-.17-.58-.35-1.66-1.11-.87-1.46.78-.3-1.75-1.61-1.85.64-1.8-2.49-5.24.2-5.77,1-.52-.45-1.34-.57-.35.2-.43.14-1.42.93-1.27,1.09-.48-.63-.3-.84-.6s.58-1.16-.09-1.08a.58.58,0,0,1-.15-.83c.1.21.24.42.43.19-.07-1,1.49-.31,1.94-1-.15-.82-1.26-.28-2-.89l-.58,0c.55.33.12.44-.17.35a6.16,6.16,0,0,0-5.27-.89c1.12-.74.86-.61.52-2-1.31-.79-.31,1.88-1.49,2.19,1-.24.6.91.33,1.4s-.65-.79-1.09-.91c-.53,0-1.34-.77-.57-1,.17-.34-1-1.35-1.71-1.13s-1.69,1.31-1.9.45c.13-.7-1-.93-1.63-1.2-.44-.66-1-1.54-1.84-1.63-1-1.05-1.76-3.94-2.71-4.34-.48-.24-.37-.84-.51-1.27-.45-.83-2.39-1.73-1.26-2.81-.61-.73-3.93-1.12-5.4-2.2-1.54-.19-1.3-2.41-2-3.5.05-.74-6.72-4.81-3.33-5.22.29-.24.83,1.5,1.07.47.45-1.1-.86-1.17-1.58-1a4.19,4.19,0,0,0-2.46-1.6c-.29-1.06-1.21-1.49-1.75-2.56-.42-.37-1.25.09-1.53-.42,1.23-.94-1.1-2.71.14-3.66-.43-1.6-1.81-2-1.09-3.82.11-1.44-2.67-3.41-2.84-1.17-.64-.83-2-.89-2-2.13,0-1.07,2.12-3,.28-3.4-.56-.2-.54-1-.56-1.57-.51-.38-1.28-1.08-1.73-1.5,0-.22-.67-1.7-.7-1.92-.46-.39-1-.41-1.2-1.19.19-.8-.83-1.89-1.18-2.51.1-.27-.73-2.64-1.3-2.08-.37-.34-.87.16-1.24-.2-.28-.75.27-1.3.24-2.09.47-.57-.3-1.44-.53-1.92-.06-1.43.63-3.43-.49-4.62-.51-.54-1.12-1.49-1.76-.89-.36-.41.46-1,.2-1.53-.15-4.89-6.11-7.28-6.25-12.53-.79-1.38.75-2.93.39-4.49.23-.87-1.17-2.74-.6-3.29,1.27,5.17,2.4-1.71,1.25-2.88-.19-.59-1.57-1.87-1.74-1,.57.15.81.71.12.4-.51-.37-1.54-.71-1.63-1.45-.5-.34-.4-1.55-1.24-.88-.88.11.51.76.76,1a48,48,0,0,1-5.91-1.13,13.06,13.06,0,0,1-3.77-1.51c1.58.07.14-1.68.18-2.55.32-3.11-4.65-3-5.82-4.93-.45.34-1.41.6-1.71,0,0-.27.05-1.32-.46-1.3-.12,1.5-.17,2,.54,2.68-1.09.55-1.2,2.39-2.73,2a6.91,6.91,0,0,1-6-2.82,16.43,16.43,0,0,1-6-4.56c-.61-.39-1.78.09-2.38-.13-.54-.42-1-1.1-1.69-1.31-2.11-.36-3.09-2.84-5.43-3.07a1.28,1.28,0,0,1-.69-1.12c-.73-.46-.08,1,.11,1.28.27.42,1.13.38,1.52.67s.78,1.06,1.45,1c1.33,1.29,2.25,4.25,2.35,6-2.4,2.39-1.31,7-2,10-.15,2.54-.8,4.63,1.35,6.28-1.39,1.48,1.2,2.13,2.21,2.77.35.62.19,1.57.36,2.25a37.63,37.63,0,0,1,.15,6c.39,1.1,1.2,1.92,1.24,3.07.79,3-.17,6.36-.35,9.23a41.23,41.23,0,0,1,3,5.82c1.15.27,1.13.88,1.72,1.56.51.08.84,0,1,.51.2.36-.07,1.39.48,1.72-.79,0,.29.76.09,1.19.88.27,1.39,1.65,2.42.94.21-.25-.26-.22-.1-.5.2,0,.31-.12.51-.14.21.36.78.12,1,.59.65.07.64.79,1.14,1.14a4.78,4.78,0,0,1,1.58,1.47c1.36.29,1.35,2.06,2.73,2,2.08,2.74,5.24,4.14,7.32,7,1.66,1,1.19,1.63.6,2.91.5.18.39,1.19,1,1.2.28.58,1,1.07,1.16,1.89,1.08,1.32.39,1,0,2.08-.06.41.93,1.22.19,1.57.26.85.59,2.12,1.73,1.65.52-.55-.41-.89.07-1.41.46-.07.82.25,1-.37.19.25.1.84.5,1a1.11,1.11,0,0,1,.59-.47c0,.37-.56.81.48.87-.36.21-.28.66.19.89-.62.58,0,2.12.62,1.95,1.31-.38,2.11-2,3,.06.33,1.46.62,3.26,1.77,4.55,0,1,.11,3,1,3.58a3.86,3.86,0,0,0,2.6,1c1-.19,1.87-.87,2.23.3-.22.73.33,0,.69.11a22.15,22.15,0,0,1-.66,3.53c-.11,1.36,2.07,2.27,1.84,3.29a3.33,3.33,0,0,0,.14,3.09c-.23.39-.54.87-.23,1.32.88.57,1.24,1,.78,2.1.2,1.89-.57,2.18,1.09,3.14,0,.89.64,2.85,1.78,2.87a4.33,4.33,0,0,0,1.79,1.83c5.6,1.62,5.07,2.59,6.53,7.26.92.81,2,2.36,2,3.55-.66.59.51.95.78,1.45s1.41.78,1.88,1.15a8.12,8.12,0,0,1,3.21,1.22c.25.2.18.52-.14.54-1.19-.14-1.74,2.15-1,2.95a2.31,2.31,0,0,1,1.16,1.57c.42.27,1,.27,1,.88,1.88,1.31.9,2.17.12,3.26-.08.67,1.08.8,1.22,1.49s.42.89,1,1.26c.54,1.88,2.3,3.38,3.08.92-1.47-1.75-3.56-2.72-3.35-5.19.06-1.15-1.32-2.15.12-2.72,1.52,1,2.67,2.69,4,3.75.79.91,2.52,1,1.93,2.71-.71,4.79,3.14,1.87,2.61,3.76-.21,1.24-.84,2.73.72,3.35-.71.7,1.13,1,.91,2s0,1.79.21,3c.6.27.24,1,.58,1.49s.7.56.65,1a1,1,0,0,1-.4,1.24c-.38.44.49,1.24-.17,1.67-.85.67.65,2,.32,2.82-.11,1,.92.78.87,1.52-.61-.76-.39.43-.14.93.66.77,2.08,1.11,2,2a7.71,7.71,0,0,0,2.37,4.39,2.86,2.86,0,0,1,.87,0c.57-.34-.12,0,.11.19s.36-.25.54,0c.31-.16,1.06,0,.62.45.24.71-.38,1.49.43,2.13a7,7,0,0,0,1.62,3.24c-.72,1.26.68,2.41.7,3.83,1,.49.67,1.8,1.75,2,0,.33.42,1.19.84.78,1.2.16.65,1.47,1.38,2.12.32.4.31.78.77.9.22.15-.35.15-.06.27a19.75,19.75,0,0,1,1,2.52c.36.8-.77,1.89-.76,2.81-1.8,1-1.23,4.69.16,6a4.6,4.6,0,0,0,.2,2.39c2,7.34,11.07,3.95,7.23,5.73-.52-.15-1.17-.87-1.51-.47.34.42.19,1,.4,1.52,1.58.35,1.58-.88,2.58-1.75.51-1.06-.5-1.37-.37-2.27-.24-.18-.07.29-.33.25-.06-.24,0-.63-.06-.8a1,1,0,0,0,0-.74c.57,0,.34-.08.16-.33.53-.49,2-.92,2.42-.18-.62.49.56.84.86,1.16.58,1.56,2.58,1.82,3.75,2.91,1.9,2.17-.12,5.32,4.75,2.92,0,.79,1.09,1.21.08,1.89-1.34,1.92,2.09,3.28,2.95,4.87-1.39,4.81,3,4.33,5.39,6.39-.89,1.25,1.65,2.09.95,3.52.57,0,.33.79,0,.9,0,.72.29,1.63-.12,2.28a6.15,6.15,0,0,1-3.1,4.83c-.92.64-2.45.74-3.43,1.62.19,1.26-1.37,1.14-2.11,1.9.5,1.39-2.87,1.29-2.15,2.08-6.47.15-4.53-9.16-7.34-12.81-1.32-4-4.71-6.38-8.6-7.73-2.59-1.65-4.54-5.41-7.09-6.95-4.8-6.4-13.37-8.72-14.15-10.77-.84-1.08-2.52-1.19-3.11-2.54-.45-1.67-.36-2-1.39-2.9-1-.17.21.89-.46,1.3a9,9,0,0,0-2.09-.17c-.86-.35.41.57.62.69-.36.12-.9-.15-1.2.24a7,7,0,0,0-2.71-5.77c-.37-.83-.08-.05.39-.16-.3-.5-1-.9-1.3-1.49s-.23-1.65-.94-2.06c.29.35.13,1.06.29,1.42.18.71,1,1,.17,1.41.35.21.68.73.12.56-.47-.81-.5.57-1-.33-.35-.53.15-2.68-.61-1.91-.37.67.81,2.77-.62,1.74-.56-.54-.41-1.47-.46-2.17-.35-.18-.88-.63-.37-.83,1.11-.41.14-1,.23-1.59,1.06-.42,0-.87.16-1.52-.74-.59-.4,1.09-.95,1.38.24.57.46,1.81-.43,1.82-.16-.7.13-1.39-.23-2,.71-.26.32-.83.82-1.43.55-1.31-.3-1.78-.22-3s.89-2.34,1.45-3.43c.41-1.65-.46-3.14.17-4.53-.26-.37-.17-.67.52-.84,1.1-.32-.51-.36-.72-.12-.18-.3.12-.44.39-.61-.36-1.9.31-4-.44-5.86-.42.86.05,3.41-.25,4.44,0,2.51-.56-.3-.18-1.19a18.8,18.8,0,0,0-2.81-10.9c-.07-.6-1.14-1.24-1.7-.89-.81-1.61-.86-3.81-2.57-5-.41-.39-1.63-.94-1.83,0-.68.25-2-1-1.84-1.64-.47.64-1.19.1-1.34-.49a2.26,2.26,0,0,1-2.6-1.31,33.32,33.32,0,0,1-5.34-4.32c-1-.43-2.88-1.2-2.32-2.71-.23-1.34-2.95-2.74-1.62-3.92.1-.64-1.13,0-1.05.63-.66-.07-.35.52-.83.69-.47-.18-.49-.93-.75-1.25.31-.2.86-.23,1.14-.59a3.44,3.44,0,0,0,1.47-3.38c-1.05-2.67-1.86,1.06-1.82,2.22-.14.82-1.42.19-1.39,1.1.34,2.72-1.08,1-2.34.43a4.71,4.71,0,0,0-3.27,0,9.27,9.27,0,0,1-1.19,2c-3.3,1.24-4.68-6-7.57-6.95-.84-.38-2.25-.54-2.69.31-1.88-1.69-2.73-4.46-5.67-4.77-.23.19-1.68-.11-1.34.73-.87-.6-2-2-3-1.07-.46-.22-.12-.68-.2-1.12-.26-.07-.79-.51-1.07-.23-.81-1.74.49-4.37-1.45-5.68-1.51-.88-2.7-2.12-4.59-2.31-.82-.89-1.32-3.64-2.59-2.5-.25-.1-1.16-1.28-.3-.6.63-.14.2-1.35-.34-1.48-.3-.09-.5.18-.59.44-.42,1.19-1-1.26-1.78-1.21-1.77.49-1.21-2.49-2.57-3.35,1.25-.59,2.17,1.32,3.75.39,2.35.48,4.33.85,6.66,1.5,5.75,1.17,7.65-4.83,8.13-1.42-1.16,2.18.93,3.24,2.66,4.06,1.51.17,1.31,2.84,2.38,1.5,2-1.8-1.27-1.37.46-1.89a3.3,3.3,0,0,0,2.38,1c.74-1.1,1.37-1.68-.14-2.25-.33.05-.34-.3-.56-.43-.21.21-.58.18-.89.24-.59-.27-.47-1.62-1.12-1.36.93,2.17,1,1.56-.83,2.43-1.09-.31-1.16-1.67-1.6-2.54s1.83-2,.52-2.51c.62-.16.22-.48-.08-.65s.32-.55-.17-.68c-.3-.15-.41.26-.48.48a6.35,6.35,0,0,1-1.34.5c-.65,1.63-1.3-.52-.33-1.07.82-.34,3-4.92,3.27-2.86.23.67-.83.68-.84,1.25s.74,1.67,1,2.26c1.2-1.42-1.28-3.09.28-2.55.7,1.31,1.49,0,1.12-.37-.48-.19-.65-.67-1.24-.45.31-.63-.52-1.58-.14-2.1,1.12-1.73,1.7-2.67-.28-3.08-.08-1.62,2.12-4.09,1.56-5.94-.56-.06-.48-.74-.41-1.16-.57-.39-.53-1.29-1.39-1.19-1.55.31,0-1.84-1.1-2.53-.63-.35-1.63.24-2.26,0,.11-.48,0-1.13-.62-1.2.15-.69-1.54-.5-1.14-1.2-.42-.58-.12-2-1-1.54-.46-.56,0-2.13-1.08-1.89,0-.91-1.33-1.83-2.16-1.28-.84-.42-.33-2.21-1.44-1.06a13.88,13.88,0,0,0-.93-3.45c-.43,0-1.5-.91-1.71,0a5.08,5.08,0,0,1-.82-2.12c-1.94-1.05-3.74-3.56-5.43-5.42-.5-.14-4.25-1.6-5-1.36-.71-2.43-3.95-3-5.53-4.49-.13-.38-1.44-1.29-1.75-.42-.59-.4-1.15-1.13-1.73-1.54a30.34,30.34,0,0,1-2.92-2.35c0-.81.45-1.76.16-2.58-1.36-5.88-3.27,1.12-2.33-7.34-.59-1.92.16-4.14-1.1-6-.57-1.46-4.43-1.06-2.33-2.4.22-.74-.53-1.52-1.21-1.69,1,1.69.81,1.79-.5,1.46-.24.62.7,1.48.71,2.28-1.51-.1-.59-2.33-1.62-3.26.59-3.53,1.33-9.38-3-10.34-.7-.76-1.2-2.37-2.16-2.82-.55.5-2.06.36-1.69-.69,2.49-5.9-3.55-11-7.16-14.74-.46-.5-1.45-1.72.05-1.4-.82-.62.11-1.89-.24-2.71-.6-1.15-1.79-.73-2.23-2,1.08,0,1.63,1.16,2.49.5,1.93-2.85.16-3.62-2.14-4.66-.79-.06-.38-1.15-.53-1.69-.75-.85-2,0-2.51-1.32-.77-2.16-.16-5.32-2.37-6.72-2.2-.13-2.26-3.56-3.28-5A5.57,5.57,0,0,1,59.06,72c1.15.11,2.53-.35,3.61-.31l51.55-4.63c1.92-.48.32,1.7-.4,2.27-1,.85.24,2.7-.94,3.55,8.92,3.28,20.74,7.59,29.67,10.85,17.89,6.61,37.19,13.41,55,20.11,3.06,1.62,6.46,1.35,9.8,1.33h56.9c2.64,0,3.27.58,3-2.31,0-3.15,0-6.31,0-9.46-.28-1.06,1.21-.4,1.82-.57h4.23l24.79.07c4,.1,8.09-.37,11.77.79,2,1.69,2.13,4.77,3.95,6.62,1.05,2.59,5,2,6.57,4.17.59.91,2.92,2.68,3.66,3.86.47,1.56,2.85,2,3.77,3.3,1.07.39,1.09,1.55,1.58,2.39a31.39,31.39,0,0,1,4.49,4.15,10.47,10.47,0,0,1,2.8,1.39c.51-.58.93.07,1.38.4.52-.07.44.49.74.58.83,1.23,3.73,1.68,3.84,3.63a4.39,4.39,0,0,1,2.12,1.64c.54.56.07,1.52.82,1.81.19.35-.32,1.11.2,1.46.09.53-.13,1.1.4,1.48.92.9,1.36,2.53,2.23,3.63,3.11,2.11-.28,6.7,2,9.5,1,2.13,2.56,4,2.94,6.47,1.94,1.67,3.55,3.93,6.16,3.8,2.74,3.36,6.17,6.93,11.05,6.68,1.39,2.45,2.84,3,5.9,3.44.66,1.65,2.7,2.35,4,3.35.25,0,.42-.53.69-.47.08,0,.26.68.42.39.72-.34-.15.53.54.65,1.32-.29,3,.84,4.18.16.47-1.45.74-2.52,2.3-3.2.72-1.92,2.08-2.3,3.87-3a1.55,1.55,0,0,1-.63-2.29,1.17,1.17,0,0,1,1.12-1.38c-.15-.25-.25-.77.06-1,0-.61-.32-1.27.18-1.79.79-2.67,2.28-4.44,3.19-7.15.32-.51,1.18,0,1.63-.29s1.28-.89,1.74-.28c1-1.74,4.33.73,4-2.43.3-.68.91-.58,1.25-1.24,2.13.8,4.32,3.07,7.16,2.24.26.3.86.08,1-.19.43.06.77.6,1.22.53s.89-.54,1.46-.18c.29.5,1.37-.71,1.28.1,2.63.79,4.63,1,6.33-.26-.45,2.23.32.85,1.43.52.4.13.48.83,1.09.54,1-.44.73,3.73,2.67,3.15.55,1.09-1,2.35,1.19.92,1.45-.26.72,1.28.85,2.14,1.11.55,2.17,1.79,3.61,1.91,1.27.19.71,1.61,1.4,2.39,1.94,1.36,4.63,2.41,5.75,4.6-.69,1.44,1.88,2,2.37,2.84.41,2.17.52,4.14,1.66,5.85.14.24.61.24.62.57-.37.44,0,.66.42.62,1.18,1.26.83,4,2.34,5.2-.31.78.71.68,1,1.11a2.13,2.13,0,0,0,1.84,2.44c-1.59.23.35,3.86,1,4.77-.66,1.7.95,1.86,1.77,2.56,0,1.57,3.47,1.41,3.6,3.14a1.38,1.38,0,0,0,.9,1.25,1.85,1.85,0,0,0,.45,1.62c.2.7,1.95.43,1.2,1.23.21,1,1.94,1.27,1.13,2.25.37.66.87,1,.65,1.89a8,8,0,0,1,2.08,1.82c.51.27,1.06.41,1,1.16.43.51.75,1.06,1.54.85.28.19.3.84.73.7,1-.88,1.33.58,2.3.74.94.6.61,1.83.6,2.76,1.8.41.55,3.66-.12,4.7.25.77,2.49,1.83,1.84,3.5-.78,1.22.33,2.38-.6,3.45.54,1.15,1.92,1,1.76,2.49,3.27,2.38,4.42,6.59,5,10.42.17,1.12,1.79.74,1.87,2.09-.3,1.07-.66,2.31,1,2,.37-.1.64.19.87.37a2.26,2.26,0,0,1,1.11-.18c.73.6.76.09,1.64.83.8,0,1.54-.1,2.27,0,.27.65,1.7.83,1.3,1.69.6-.08,1.39.16.88.83,1.78,1.38,2.28-.21,4.23.8.63,0,1.14,1.35,1.52.39.61.34,2.36.57,1.85,1.36,1.44,1,3.87,3.73,6.4,2.57a.73.73,0,0,1,.66.74c.54.34,1.2-.56,1.77-.46a36.77,36.77,0,0,1,7.93.87c1.42.86,2.21,2.46,3.69,3.35.31.34,1.19,0,1.42.44-.07.48.47.88.87.87,0-.52.61-.39.65.12.64.33,1-.74.56-1.24-.55-1.2,1.06-.69,1.51-.89C523.23,247.61,524.76,248.26,526.08,248Zm-337,41a4,4,0,0,1,2.3,1.24,7,7,0,0,0-3.14-.9C184.51,290.1,187.53,288.8,189.07,289Zm-4.49-1.77c.37,1.12,1.43,1.65,1.4,2.55-.58,1.1-.22,1.42-1.06.25-1.92-1.56-3.84-3.45-6.14-4.32-.33-.77,3-.34,3.53-.09.35-.19.52.75.76,1.08C183.57,286.79,184.22,286.8,184.58,287.22Zm-8.18-4.37c.45.57,1.93,2.48.29,1.69a5.2,5.2,0,0,0-1.89-2.45c-.17-.35.23-.76.64-.62,1-1.27-2-4.21-2.72-2.54.46,1.16-1-.61-.95-.86,1.91-3.27,3-8.1,3.83-11.92,1.37,1.53-1.88,4.88-.61,6.93.33.81-.37.44-.54.91.07.73-.42,1.49.09,2.11s-1.15.1-.6,1.44C178.08,281.87,173.93,281.73,176.4,282.85ZM252.86,262c2.89,3-2.37-.72-3.8,0C247.54,260.94,252.37,261.54,252.86,262Zm-52.57-14.84c.36,0,.39.55.32.86-.41-.18-.72-1.1-1.22-.69,0,1.11-1.46,1.76-1.49,2.86.23.56-.32.58-.49,1s.37,1.45-.36.73.3-3.49,1.06-4.18c.44-.48-.41-1.74.3-1.74.53,0,.56-.35.8-.6.25.42,1.06.49,1.24,0C201.31,245,199.89,246.51,200.29,247.14Zm24.23-28.43c.75-.18,2.74,1.22,2.3,1.73C226.39,219.5,225.32,219.14,224.52,218.71Zm-13.08-6.07c-.09-2.29.21-3.19.23-.36C213.71,213.41,213.19,214,211.44,212.64Zm-107.28-27c.92,1.64.57,3.5.92,5.32-1.17.71-.32,2.51-.78,2.93-1.89-.15-1.06,0-2.13-1.51-.73-.62-1.46.72-1.82.13.15-1.39,2.18-2.65,2.77-4C101.78,187.34,103.49,182.77,104.16,185.6Zm68.24-11.36c-1.14.84-2.18,0-3.22-.84-1.5.24-2.23-1.48-3.75-1.83,3.43-3.15.68-3.31,2.17-7.65.36-1.15.89-1.22,1.84-.92.66-1,1.89-.56,2.67-1.17.47-.6.71-.23.13.2.06.52.57.8.31,1.35-.63,1.57,2.6,3.35,1.28,5,0,1.84-.91,3.22-1.46,4.84C172.24,173.72,173.47,174.57,172.4,174.24Zm-20.17-7.91c1.28.18.32,1.16.54,2.15a13.7,13.7,0,0,1-4.34-4.3,7.44,7.44,0,0,1-3.49-3.6c-1.61.36-1.41-1.94-2.54-2.64-1.61-1.34.12-2.7-.29-4.34.23-.16,1,.47,1.11-.27.34.28,1,.38,1.41.83,5,4.56-.42,4.74,3.87,6.4.6-.11,3.55-.77,2.78.56C151.71,162.78,150.93,165.14,152.23,166.33ZM113.72,92.11c1,0,3.54,2.62,2.8,3.11C115.36,94.79,112.7,94.49,113.72,92.11ZM655.51,429.93c.72-.63,2.23-.53,1.67.42-.13-.19-1.67,1-.93.09,1-.54-.89.29-1.22.17-.26.9-3.15,3.24-1.92,1.16-.66.43-2.86,1.81-3.16,1A48.21,48.21,0,0,1,655.51,429.93ZM770,369.58c-.59-.39-1.42-1.53-1-2.22A5.69,5.69,0,0,0,770,369.58ZM514.11,354.79c1.91.84.51,2-.28.24C513.06,353.07,513.54,352.41,514.11,354.79Zm-3.83-23.54c.28-1.3,1.07-1.7.45-.09C510.27,332.13,509.08,332.5,510.28,331.25Zm-360.54-103c.48-.46.87,0,1.15.28.52-.72,1.18.87,1.34,1.28C151.72,229.24,148.46,228.92,149.74,228.21Zm-58.61,46s0,0,0,0S91.1,274.17,91.13,274.16Zm85.21-13.67c.44-.29,0,6.5-.74,4.83A13.67,13.67,0,0,0,176.34,260.49ZM196.15,252c.31.35.22.74.36,1.2C196.07,253.1,196.15,252.3,196.15,252Zm-.66-8.14c.6-.9.87.81.12.55C195.54,244.46,195.64,244.11,195.49,243.83Zm-52.16-78.32c.57.06.18,1,.52,1.42s-.33-.05-.41-.29C143.76,166.29,142.87,165.7,143.33,165.51ZM56.06,75.07c.24,0,.47.81.24.88C56.25,75.67,56.12,75.34,56.06,75.07Z" transform="translate(-55.81 -66.73)" style="fill:none;stroke:#000;stroke-linecap:round;stroke-linejoin:round;stroke-width:0.5px"/></svg>