<?xml version="1.0" encoding="utf-8"?>
<!-- Generator: Adobe Illustrator 24.3.0, SVG Export Plug-In . SVG Version: 6.00 Build 0)  -->
<svg version="1.1" id="usa" xmlns="http://www.w3.org/2000/svg" xmlns:xlink="http://www.w3.org/1999/xlink" x="0px" y="0px"
	 viewBox="0 0 832.65 519.14" style="enable-background:new 0 0 832.65 519.14;" xml:space="preserve">
<style type="text/css">
	.st0{fill:none;stroke:#000000;stroke-width:2;}
</style>
<g id="usa-bounds">
	<path class="st0" d="M533.02,79.93c14.11,4.704,21.898,13.785,34.73,1.416c16.468-6.619,10.577,8.03,24.651-0.864
		c-1.477,1.848,3.951,8.782-0.431,4.589c4.008,6.05,6.8,7.869-3.842,6.232c-0.195,8.767-11.089-2.166-14.459,2.838
		c-12.035,5.047-11.512,6.168-20.869,12.428c-1.995,6.368-13.413,32.367-3.297,16.403c7.478-3.762,1.678,7.588,2.818,11.158
		c-2.65,13.531-0.698,28.247,2.523,42.42c5.377,6,5.557,16.46,15.357,6.29c13.974-20.626-5.853-38.288-1.287-60.25
		c5.798-2.696,9.312-21.613,8.827-5.372c4.681-4.313,1.04-22.267,11.49-20.189c-3.72-1.889,5.38-2.939,1.44,0.421
		c4.394,1.552,11.129,4.188,15.861,4.788c11.405,11.268-4.611,30.465,3.363,34.894c5.438-16.6,15.497-11.533,18.685,3.471
		c9.636,12.988-6.706,14.82-4.3,27.647c-7.839,11.11,6.741,3.59,12.101,9.51c13.722-9.597,48.925-26.95,43.166-44.788
		c-5.97-14.429,47.695-7.725,33.832-30.755C706.59,103.64,719.12,93,716.78,90.77c4-14,17.19-16.12,28.93-19.9
		c7.839-4.922,26.801-4.279,25.911-15.818c3.411-0.383,6.531-1.516,7.719-5.531c-3.999-0.481,0.861-8.771,0.871-10.591
		c-1.662-10.127-2.302-25.329,1.272-35.47c22.515,2.206,14.738-15.493,31.158,20.872c-0.421,3.438,0.139,4.538,3.589,5.238
		c5.22-2.22,1.93,1.1,5.14,5.34c10.692-0.167,12.705,13.831,1.448,14.752c1.162,7.718-7.998,4.328-7.608,8.488
		c1.55,4.42-2.13,2.3-5.4,3.06c0.456,2.857-4.282,15.815-6.891,11.771c1.071,1.599-2.999,2.539-3.779,3.099
		c-1.514,8.387-4.147,16.061-3.891,23.54c0.968,5.285,7.233,1.792,1.462,6.799c2.084,5.858,17.15,20.548,16.522,6.5
		c3.998,6.131,1.608,5.601-3.592,8.451c-0.32,3-2.95,1.07-4.66,0.67c-3.79,4-6.51,11.16-6.6,0.39c-2,5.31-3.83-1.84-1.94,8.93
		c-9.508,8.011-22.407,9.739-28.54,19.122c-0.27,3.398-3,7.998-3.71,1.638c-0.37,2.36-0.12,8.48-2.11,10.21l1.09-1.55
		c-2.6,6.93,4.67-0.67,4.44,6.5c-0.162,11.224-1.056,20.348-6.729,29.871c1.899-10.001-14.151-2.701-11.911-13.871
		c10.5,28.226,19.398,13.84,5.873,53.062c-2.823-3.912,4.457-16.802-1.063-19.312c-4.42,0.94-3.11-1.61-3.11-4.66
		c-2.216,8.154-12.034-2.873-3.49-3.109c-8.77-2.331-1-3.101-4-11.161c-3.42,8.89-3.19-5.39-2.62-7.86
		c-2.894,7.471-4.348,17.836,2.039,24.941c-2.45,0.599-4.69-3.071-5.83-4.661c1,7.38,6.85,2.32,8.06,10.39
		c-6.113-2.124-16.592-3.607-16.018-8.153c-0.792,7.019,2.326,4.339,6.019,7.762c17.196,0.013,15.24,13.757-0.67,2.429
		c4.39,1.173,9.21,9.083,14.27,7.283c4.85,9.63-6.32-1.15,2.91,9.8c-3,6-2.39-3.9-16.79-0.39c4.25-0.12,11.49,1.23,14.46,4.56
		c9.848-9.406,14.85,12.865,20.682,17.569c-4.712-3.269-8.262-12.329-11.652-16.209c0.491,4.778,1.277,4.997,5.142,10.39
		c-2.911-2.06-3.292-1.8-4.272,1.55c-4.371-0.142-5.742,4.519-8.93,6.89c6.53-1.84,11.34-8.43,12.52,2.62c-2-9.47,5.18-8.6,4.27,0.3
		c-7.347,9.083-8.449,4.424-19.771,6.688c-0.299,0.722,9.271,1.792,9.521,1.942c-3.92,6.26,3.45,3.13-5,8.55
		c3,0,8.24-0.13,9.12-3.69l-1,6.4c-21.829,5.771-11.957,22.145-29.609,26.4c-5.787,6.148-9.554,17.39-12.032,23.299
		c-4.792,3.37-7.913,12.958-16.209,11.94c6.326,3.739,1.719,6.83-2.521,2.039c1.426,16.161-12.385,32.452,0.777,49.791
		c9.241,26.892,53.468,59.087,29.631,94.56c-0.008,0-7.677,2.52-7.677,2.52c-4.7-4.45,0.15-1.78,2.52-2.72c0,0-1.07-0.49-1-0.58
		c0.15,0.15-3.06-1.33-2.13-1.26c-8.242-11.253-23.749-14.402-21.94-29.22c-3.602,2.067-6.383-0.513-2.48,4.178
		c-5.556,0.076-13.512-11.775-8.72-17.177c-0.219-7.531-6.766-3.54-3.208,1.548c-10.395-30.489,9.446-20.651-35.133-42.79
		c-18.437,20.068-21.456,3.442-38.67-1.06c-4.642,2.733-12.421,1.249-15.919,5.629c-6.679,3.601-0.359-1.939-2.529-2.819
		c-3.229,6.051-9.342,3.962-10.869-3.59c0.998,17.466-14.927,1.164-25.142,14.269c-6.609,0.361-12.869-6.339-15.819,2.911
		c4.014,5.894,18.52-8.165,11.251,2.749c3.829,1.251,4.289,0.151,5.439-3.299c3.446,2.276,3.392,10.254-2.341,8.54
		c-1.869,8.4,20.381,2.86,7.381,12.52c1.77-4.49-6.09-5.07-8.93-5.34c-3.12-4.868-7.256-4.454-5.248,2.04
		c-2.182,5.22-2.332,2.91-4.752-0.39c-8.83,5.84-6.8,5-17.18,1.94c9.353-2.364-6.808-4.149-7.089-8.56
		c-2.001,0.2-3.801,2-3.001-1.36c-9.234,1.339-1.616,9.109-14.461,5.919c-6.681-5.476-23.201,3.215-20.287-6.107
		c-0.702-0.632-1.532,6.128-1.742,6.208c-1.41-0.88-13.67,6.31-15.05,6.89c5.388-3.905-1.443-0.714,0.681-7.86
		c-8.399,8.951-10.506,31.204-33.294,23.968c9.373,9.045-1.186,2.448-5.275,11.173c-0.217-6.778-0.893,9.676-9.961,5.328
		c6.567,3.692,1.645,17.275-4.762,8.351c3.498,3.912,3.817,7.017,5.628,11.751c0.813,5.429,1.863,14.669,6.803,18.049
		c-13.105,1.759-29.695-3.09-37.08-15.229c-7.104-7.264-9.646-22.854-21.062-30.67c-6.267-19.593-15.288-29.41-35.33-32.228
		c-12.648,2.717-7.598,10.887-16.118,17.377c-28.626-9.746-31.221-42.955-56.674-59.527c-54.176-7.903-11.486,10.217-44.256,5.047
		c-32.18,1-69.94-21.55-96.29-37.76c11.11-7.86-37.47-5.49-37.66-7.67c-2.515-14.316-10.999-24.241-19.706-35.427
		C53.28,321.72,50.04,314.82,45.6,310.33c-8.57-3.251-19.718-3.81-14.944-19.701c-3.932-7.895-18.527-28.407-9.809-36.397
		c-6.743-4.431-11.007-30.695-1.749-15.731c-0.172-6.887-4.364-11.321,4.274-12.128c-6.862,1.088-3.412-5.452-8.732,4.178
		c-10.77-7.15-2.13-11.42-8.35-18.45c-9.41-13.202,4.843-25.032-5.832-37.57c-0.171-7.545,10.806-15.848,11.078-24.071
		c0.515-15.152-0.058-31.004,11.326-42.898c9.983-12.737,10.063-52.838,28.524-44.843c-3.604-0.036-3.921-6.015-8.538-4.367
		c-3.921-1.872-0.107-13.89,0.29-3.502C47.99,44.02,38.14,50.47,47.02,44.37c-8.018,2.608-1.226-13.091-2.522-17.081
		C41.99,23.49,43.36,18.15,45.18,14.38c5.65,8.768,33.569,9.862,18.34,20.479c3.626,1.594,4.29-5.983,6.5-3.59
		c-0.409,4.463-5.533,6.053-3.308,10.531C64.93,40.66,63.35,42.9,62.34,44.03c3.101-6.577-1.426-1.115-3.198,1.75
		c9.244-0.089,9.797-2.352,11.738-10.871c3.871-2.54,1.442-10.891,0.66-13.459c-1.25-5.09,2,2.24,3.61-3.54c0,0-1.55-8.44-1.55-8.44
		c4.44,0.87,24.35,6.6,29.12,7.86c108.221,28.451,222.364,40.496,333.714,32.601c-0.162-3.802-2.032-10.233,4.185-5.373
		c3.562,17.666,8.178,7.652,15.684,13.899c11.647-6.67,19.743,3.576,31.144,6.665c7.115-4.727,19.567-1.526,25.003-1.432
		c-13.352,6.53-47.619,40.488-13.097,22.943C495.9,103.588,527.374,85.966,533.02,79.93 M590.11,96.39c0.08,0.08,0.14,0.12,0.2,0
		H590.11z M532.32,80.38c0.15-0.19-0.12-0.17-0.23-0.22L532.32,80.38z"/>
</g>
</svg>
